<?xml version="1.0" standalone="no"?>
<!DOCTYPE svg PUBLIC "-//W3C//DTD SVG 20010904//EN"
 "http://www.w3.org/TR/2001/REC-SVG-20010904/DTD/svg10.dtd">
<svg version="1.0" xmlns="http://www.w3.org/2000/svg"
 width="500.000000pt" height="500.000000pt" viewBox="0 0 500.000000 500.000000"
 preserveAspectRatio="xMidYMid meet">
<metadata>
Created by potrace 1.16, written by Peter Selinger 2001-2019
</metadata>
<g transform="translate(0.000000,500.000000) scale(0.100000,-0.100000)"
fill="#000000" stroke="none">
<path d="M0 2500 l0 -2500 2500 0 2500 0 0 2500 0 2500 -2500 0 -2500 0 0
-2500z m2302 1253 c1 -55 2 -59 5 -22 l4 47 97 17 c53 9 104 19 113 21 12 3
55 -46 150 -170 74 -96 137 -175 142 -175 4 -1 7 46 7 104 0 63 -4 105 -10
105 -5 0 -10 5 -10 10 0 6 25 10 55 10 30 0 55 -4 55 -10 0 -5 -4 -10 -10 -10
-5 0 -10 -21 -10 -47 l1 -48 34 37 c35 38 44 58 25 58 -5 0 -10 5 -10 10 0 6
42 10 105 10 63 0 105 -4 105 -10 0 -5 -7 -10 -15 -10 -12 0 -15 -18 -15 -105
0 -98 1 -105 20 -105 23 0 60 33 60 54 0 8 5 18 10 21 6 4 10 -12 10 -39 l0
-46 -147 0 c-82 0 -143 4 -136 8 8 5 3 20 -15 52 l-27 45 -3 -44 c-2 -28 1
-47 10 -52 8 -5 -5 -9 -34 -9 -47 0 -47 0 -36 -25 7 -16 17 -24 27 -21 9 3 36
7 61 11 25 4 52 8 61 11 11 3 57 -58 167 -224 84 -125 152 -234 152 -242 0 -8
34 -39 74 -68 148 -108 171 -148 44 -77 -284 159 -491 235 -770 280 -23 4 -15
-8 54 -73 74 -71 208 -234 208 -254 0 -17 -15 -6 -105 80 -107 102 -199 167
-317 221 l-83 38 -120 -8 c-222 -16 -458 -62 -608 -119 -61 -24 -67 -24 -67
-7 0 14 113 83 195 117 28 12 86 33 130 46 l80 24 -60 -5 c-90 -9 -253 -50
-356 -90 -105 -40 -99 -39 -99 -21 0 19 173 106 296 149 195 68 384 83 539 42
36 -10 109 -17 185 -18 69 -1 114 -1 100 1 -14 2 -29 11 -34 19 -6 11 -10 12
-15 4 -14 -22 -42 2 -71 60 -17 32 -30 66 -30 75 0 13 -39 73 -86 133 -2 2
-59 -49 -128 -112 -123 -113 -127 -116 -183 -122 -82 -10 -227 -49 -317 -85
-42 -16 -79 -30 -81 -30 -18 0 7 44 96 169 74 104 108 145 130 153 16 5 29 15
29 20 0 6 34 57 75 113 73 100 77 104 126 114 27 6 57 11 64 11 10 0 15 11 15
35 0 35 0 35 45 35 l45 0 2 -67z m113 -326 c10 -14 15 -45 15 -85 0 -57 -2
-63 -17 -57 -10 4 -33 9 -50 12 l-33 6 0 63 c0 69 15 96 50 87 11 -3 27 -15
35 -26z m-525 -807 c0 -97 1 -100 23 -100 18 0 32 19 73 98 47 88 54 97 83
100 17 2 31 0 31 -3 0 -3 -26 -55 -57 -116 l-58 -109 55 -106 c30 -58 57 -109
58 -115 2 -5 -12 -9 -30 -9 -33 0 -35 3 -83 100 -41 83 -53 100 -72 100 -22 0
-23 -2 -23 -100 l0 -100 -30 0 -30 0 0 230 0 230 30 0 30 0 0 -100z m320 -130
l0 -230 -30 0 -30 0 0 230 0 230 30 0 30 0 0 -230z m215 72 l70 -157 3 158 3
157 29 0 30 0 0 -231 0 -230 -32 3 c-31 3 -34 8 -103 160 l-70 158 -3 -160 -2
-160 -30 0 -30 0 0 230 0 230 33 0 c32 0 32 -1 102 -158z m439 152 c9 -3 16
-16 16 -29 0 -21 -3 -22 -67 -18 -58 5 -72 2 -93 -15 -25 -20 -25 -23 -25
-165 0 -159 4 -172 60 -183 65 -12 75 -1 75 77 l0 69 -35 0 c-32 0 -35 2 -35
30 l0 30 65 0 65 0 0 -124 0 -123 -37 -7 c-62 -10 -121 -7 -157 8 -51 21 -61
58 -61 226 0 206 14 228 147 229 36 1 73 -2 82 -5z m304 -26 l3 -26 -60 5
c-47 4 -66 2 -86 -11 -23 -15 -26 -23 -23 -69 l3 -52 72 -15 c97 -20 108 -32
108 -124 0 -116 -27 -146 -133 -146 -81 0 -102 8 -102 35 0 23 3 23 76 22 88
-2 104 10 104 79 0 55 -17 71 -87 80 -40 5 -64 14 -81 31 -22 22 -24 31 -20
100 3 68 6 78 32 99 25 23 35 25 110 22 79 -3 81 -4 84 -30z m-1598 -683 l0
-205 75 0 c73 0 75 -1 75 -25 l0 -25 -105 0 -105 0 0 230 0 230 30 0 30 0 0
-205z m359 168 c5 -21 31 -118 56 -217 26 -98 49 -185 52 -193 4 -11 -2 -14
-28 -11 -32 3 -34 6 -47 61 l-14 58 -66 -3 -66 -3 -14 -57 c-13 -54 -16 -58
-43 -58 -16 0 -29 3 -29 7 0 11 112 437 117 446 2 4 19 7 38 7 31 0 35 -3 44
-37z m287 -118 l69 -156 3 156 3 155 29 0 30 0 0 -231 0 -230 -31 3 c-30 3
-34 9 -103 163 l-71 160 -3 -162 -2 -163 -25 0 -25 0 0 230 0 230 28 0 c27 0
32 -8 98 -155z m397 144 c58 -16 70 -43 75 -174 6 -152 -3 -221 -33 -251 -22
-22 -32 -24 -125 -24 l-100 0 0 230 0 230 73 0 c39 0 89 -5 110 -11z m207
-219 l0 -230 -30 0 -30 0 0 230 0 230 30 0 30 0 0 -230z m216 75 l69 -156 3
156 3 155 29 0 30 0 0 -231 0 -230 -31 3 c-30 3 -34 9 -103 163 l-71 160 -3
-162 -2 -163 -25 0 -25 0 0 230 0 230 28 0 c27 0 32 -8 98 -155z m442 149 c15
-4 22 -14 22 -31 0 -23 -2 -23 -49 -17 -65 8 -118 -2 -131 -26 -27 -50 -23
-278 4 -316 10 -12 28 -18 62 -18 l49 -1 3 73 3 72 -36 0 c-32 0 -35 2 -35 30
l0 30 65 0 65 0 0 -124 0 -123 -31 -7 c-48 -9 -123 -7 -157 5 -53 18 -66 63
-67 219 0 153 12 202 53 225 27 14 137 20 180 9z m-2298 -604 c0 -33 3 -40 20
-40 11 0 20 -4 20 -10 0 -5 -13 -10 -30 -10 -29 0 -30 1 -30 50 0 28 5 50 10
50 6 0 10 -18 10 -40z m150 30 c0 -5 -4 -10 -10 -10 -5 0 -10 -13 -10 -30 0
-16 5 -30 10 -30 6 0 10 -4 10 -10 0 -5 -13 -10 -30 -10 -16 0 -30 5 -30 10 0
6 5 10 10 10 6 0 10 14 10 30 0 17 -4 30 -10 30 -5 0 -10 5 -10 10 0 6 14 10
30 10 17 0 30 -4 30 -10z m82 -22 l12 -33 13 33 c12 30 33 44 33 22 0 -23 -33
-90 -45 -90 -12 0 -45 67 -45 90 0 23 22 8 32 -22z m153 -18 c0 -43 -3 -50
-20 -50 -17 0 -20 7 -20 50 0 43 3 50 20 50 17 0 20 -7 20 -50z m104 24 l21
-27 0 27 c0 16 5 26 15 26 11 0 15 -12 15 -50 0 -58 -16 -66 -49 -24 l-21 27
0 -27 c0 -14 -4 -26 -10 -26 -5 0 -10 23 -10 50 0 56 9 62 39 24z m189 4 c3
-15 -2 -17 -28 -11 -29 5 -31 4 -28 -18 2 -15 10 -25 23 -26 11 -2 14 0 8 3
-22 10 -14 24 12 24 34 0 34 -36 0 -52 -31 -14 -75 12 -75 44 0 49 80 81 88
36z m212 7 c0 -8 -10 -16 -22 -16 l-23 -2 23 -4 c27 -5 29 -33 2 -33 -11 0
-20 -7 -20 -15 0 -8 -7 -15 -15 -15 -11 0 -15 12 -15 50 l0 50 35 0 c24 0 35
-5 35 -15z m135 -1 c23 -24 15 -66 -17 -83 -24 -14 -28 -14 -47 3 -25 23 -27
58 -5 80 20 21 48 20 69 0z m133 4 c12 -15 13 -98 1 -98 -5 0 -13 9 -19 20
-13 24 -30 26 -30 5 0 -8 -4 -15 -10 -15 -5 0 -10 23 -10 50 0 48 1 50 29 50
16 0 33 -6 39 -12z m172 -8 c0 -13 7 -20 20 -20 13 0 20 7 20 20 0 11 5 20 10
20 6 0 10 -22 10 -50 0 -27 -4 -50 -10 -50 -5 0 -10 7 -10 15 0 8 -9 15 -20
15 -11 0 -20 -7 -20 -15 0 -8 -4 -15 -10 -15 -5 0 -10 23 -10 50 0 28 5 50 10
50 6 0 10 -9 10 -20z m206 -8 c15 -31 7 -61 -21 -74 -49 -22 -90 32 -60 78 21
32 64 30 81 -4z m129 18 c10 -17 -5 -32 -20 -20 -8 7 -16 7 -19 2 -3 -6 5 -13
19 -16 31 -8 34 -41 5 -56 -14 -8 -26 -8 -40 0 -28 15 -15 31 18 25 l27 -5
-27 12 c-27 11 -38 45 -21 61 10 11 51 8 58 -3z m125 -5 c0 -8 -4 -15 -10 -15
-5 0 -10 -16 -10 -35 0 -24 -5 -35 -15 -35 -10 0 -15 10 -15 34 0 21 -6 36
-15 40 -29 11 -15 26 25 26 29 0 40 -4 40 -15z m120 0 c0 -9 -10 -15 -22 -16
-17 -1 -19 -2 -5 -6 21 -5 23 -23 2 -23 -8 0 -15 -4 -15 -10 0 -5 9 -10 20
-10 11 0 20 -4 20 -10 0 -5 -16 -10 -35 -10 l-35 0 0 50 0 50 35 0 c24 0 35
-5 35 -15z m80 -25 c0 -36 3 -40 25 -40 14 0 25 -4 25 -10 0 -5 -16 -10 -35
-10 l-35 0 0 50 c0 28 5 50 10 50 6 0 10 -18 10 -40z m165 30 c11 -17 -5 -32
-21 -19 -9 7 -14 8 -14 1 0 -6 9 -14 20 -17 27 -8 27 -51 0 -60 -23 -7 -63 12
-55 26 4 5 18 7 33 4 l27 -6 -27 16 c-26 15 -36 43 -21 58 10 11 51 8 58 -3z
m204 -27 c8 -21 16 -44 18 -50 3 -7 -2 -13 -10 -13 -8 0 -17 6 -20 13 -3 9 -9
9 -27 -1 -12 -7 -24 -11 -27 -8 -9 8 29 96 41 96 7 0 18 -17 25 -37z m118 10
l22 -28 1 28 c0 15 5 27 10 27 6 0 10 -22 10 -50 0 -56 -16 -66 -43 -27 l-16
22 0 -22 c-1 -14 -7 -23 -16 -23 -11 0 -15 12 -15 50 0 58 13 64 47 23z m177
11 c19 -18 21 -55 4 -72 -7 -7 -27 -12 -45 -12 -33 0 -33 0 -33 50 0 49 1 50
29 50 16 0 37 -7 45 -16z m-1714 -204 c0 -33 3 -40 20 -40 11 0 20 -4 20 -10
0 -5 -13 -10 -30 -10 -29 0 -30 1 -30 50 0 28 5 50 10 50 6 0 10 -18 10 -40z
m178 28 c27 -27 4 -98 -31 -98 -24 0 -57 32 -57 55 0 45 58 73 88 43z m141 3
c20 -13 5 -29 -22 -24 -15 3 -26 -1 -30 -10 -8 -22 9 -40 32 -34 28 7 37 -9
12 -22 -27 -15 -37 -14 -55 5 -44 44 10 118 63 85z m127 -36 c19 -52 15 -62
-16 -43 -18 10 -24 10 -27 1 -3 -7 -12 -13 -20 -13 -8 0 -13 6 -10 13 2 6 10
29 18 50 7 20 18 37 25 37 7 0 20 -20 30 -45z m94 5 c0 -33 3 -40 20 -40 11 0
20 -4 20 -10 0 -5 -13 -10 -30 -10 -29 0 -30 1 -30 50 0 28 5 50 10 50 6 0 10
-18 10 -40z m165 30 c10 -17 -5 -32 -20 -20 -8 7 -16 7 -19 2 -3 -6 5 -13 19
-16 31 -8 34 -41 5 -56 -14 -8 -26 -8 -40 0 -28 15 -15 31 18 25 l27 -5 -27
12 c-27 11 -38 45 -21 61 10 11 51 8 58 -3z"/>
<path d="M2475 3679 c-22 -33 -44 -66 -49 -73 -6 -8 2 -27 23 -56 l31 -43 0
60 c0 70 13 89 53 74 36 -14 47 -40 47 -111 0 -53 -2 -61 -16 -56 -31 12 -64
18 -64 12 0 -3 21 -35 47 -71 34 -48 49 -62 55 -51 4 7 32 17 63 21 30 3 55 8
55 10 0 2 -43 70 -96 150 -53 81 -99 158 -103 171 -5 21 -9 18 -46 -37z"/>
<path d="M2979 3651 l-40 -40 23 -41 c35 -62 73 -104 86 -96 8 5 12 40 12 101
0 85 -2 95 -21 105 -17 10 -26 6 -60 -29z"/>
<path d="M2143 3540 c0 -47 2 -66 4 -42 2 23 2 61 0 85 -2 23 -4 4 -4 -43z"/>
<path d="M2860 3285 c-93 -65 -109 -72 -140 -67 -19 3 -38 9 -41 14 -3 5 -9 3
-12 -6 -5 -11 -1 -16 13 -16 41 0 252 -61 337 -98 l91 -39 -28 60 c-16 32 -26
65 -24 72 4 9 -41 84 -90 152 0 1 -48 -32 -106 -72z m133 3 c12 -14 17 -37 17
-79 0 -65 -1 -65 -62 -48 l-38 10 0 62 c0 36 5 68 12 75 15 15 48 6 71 -20z"/>
<path d="M1877 2100 c-4 -8 -13 -44 -22 -80 -9 -36 -18 -73 -21 -82 -5 -16 2
-18 45 -18 28 0 51 3 51 8 -1 30 -49 184 -53 172z"/>
<path d="M2490 1975 l0 -175 54 0 c77 0 80 7 84 164 4 168 -2 180 -81 184
l-57 3 0 -176z"/>
<path d="M2148 1598 c-8 -21 2 -38 22 -38 19 0 30 17 23 38 -3 6 -13 12 -23
12 -10 0 -20 -6 -22 -12z"/>
<path d="M2661 1606 c-16 -19 -7 -46 14 -46 22 0 30 29 13 46 -13 13 -16 13
-27 0z"/>
<path d="M3780 1585 c0 -18 5 -25 19 -25 20 0 31 17 24 38 -3 6 -13 12 -24 12
-14 0 -19 -7 -19 -25z"/>
<path d="M2242 1408 c4 -27 33 -36 42 -13 8 22 -1 35 -25 35 -15 0 -20 -6 -17
-22z"/>
</g>
</svg>
