<svg width="53" height="65" viewBox="0 0 53 65" fill="none" xmlns="http://www.w3.org/2000/svg">
<path fill-rule="evenodd" clip-rule="evenodd" d="M52.645 11.8182L26.3225 0L0 11.8182V29.5455C0 45.9432 11.2309 61.2773 26.3225 65C41.4141 61.2773 52.645 45.9432 52.645 29.5455V11.8182ZM14.6236 42.8409V38.4091H38.0214V43.1068C37.8751 43.8455 37.2609 44.3182 36.3543 44.3182H15.9982C15.1793 44.2 14.6236 43.6386 14.6236 42.8409ZM33.1371 28.5705L40.9461 20.6818L38.0214 35.4545H14.6236L11.6989 20.6818L19.5079 28.5705L26.3225 21.6864L33.1371 28.5705ZM17.036 48L17.1107 47.3027H17.0507C17.0048 47.459 16.9559 47.5771 16.9042 47.6572C16.8534 47.7373 16.7929 47.7959 16.7225 47.833C16.6522 47.8701 16.5643 47.8887 16.4589 47.8887H16.2933C16.1996 47.8887 16.1405 47.8843 16.1161 47.8755C16.0819 47.8618 16.059 47.8413 16.0472 47.814C16.0355 47.7856 16.0297 47.7207 16.0297 47.6191V46.3535C16.0297 46.2539 16.035 46.1924 16.0458 46.1689C16.0604 46.1357 16.0805 46.1123 16.1058 46.0986C16.141 46.0781 16.1874 46.0679 16.245 46.0679H16.3314V46.0137H15.2723V46.0679H15.3383C15.3939 46.0679 15.4379 46.0776 15.4701 46.0972C15.5033 46.1157 15.5253 46.1377 15.536 46.1631C15.5468 46.1885 15.5521 46.252 15.5521 46.3535V47.6602C15.5521 47.7598 15.5468 47.8213 15.536 47.8447C15.5223 47.8779 15.5028 47.9014 15.4774 47.915C15.4423 47.9355 15.3959 47.9458 15.3383 47.9458H15.2723V48H17.036ZM18.724 47.4346H19.4257L19.5312 47.6821C19.5585 47.7466 19.5732 47.7832 19.5751 47.792C19.581 47.8105 19.5839 47.8286 19.5839 47.8462C19.5839 47.8755 19.5732 47.8979 19.5517 47.9136C19.5204 47.9351 19.4662 47.9458 19.3891 47.9458H19.3495V48H20.3105V47.9458C20.2499 47.9409 20.2031 47.9233 20.1698 47.8931C20.1259 47.853 20.0697 47.7559 20.0014 47.6016L19.2851 45.9727H19.2572L18.5468 47.5576C18.4794 47.709 18.4228 47.8091 18.3769 47.8579C18.331 47.9058 18.2724 47.9351 18.2011 47.9458V48H18.8617V47.9458C18.7582 47.938 18.6933 47.9263 18.6669 47.9106C18.622 47.8843 18.5995 47.8433 18.5995 47.7876C18.5995 47.7456 18.6132 47.6924 18.6406 47.6279L18.724 47.4346ZM19.08 46.6421L19.3759 47.3262H18.7753L19.08 46.6421ZM23.0327 47.2456L22.0527 46.0137H21.3481V46.0679C21.4087 46.0698 21.455 46.0791 21.4873 46.0957C21.5195 46.1123 21.5566 46.147 21.5986 46.1997L21.6411 46.2524V47.6543C21.6411 47.7598 21.6196 47.8345 21.5766 47.8784C21.5337 47.9224 21.4575 47.9448 21.3481 47.9458V48H22.0527V47.9458H22.0058C21.9384 47.9458 21.8784 47.9258 21.8256 47.8857C21.7739 47.8457 21.748 47.7686 21.748 47.6543V46.3916L23.0913 48.0454H23.1411V46.3916C23.1411 46.2979 23.1489 46.2319 23.1645 46.1938C23.1811 46.1548 23.2036 46.127 23.2319 46.1104C23.2612 46.0928 23.3178 46.0786 23.4018 46.0679V46.0137H22.7456V46.0679C22.8559 46.0659 22.9345 46.0933 22.9814 46.1499C23.0156 46.1919 23.0327 46.2725 23.0327 46.3916V47.2456ZM24.4731 47.9458V48H25.3623C25.4902 48 25.584 47.9941 25.6436 47.9824C25.7783 47.957 25.8921 47.9214 25.9849 47.8755C26.0786 47.8286 26.1611 47.7671 26.2324 47.6909C26.3037 47.6138 26.3618 47.5166 26.4067 47.3994C26.4517 47.2812 26.4741 47.1523 26.4741 47.0127C26.4741 46.8105 26.4282 46.6294 26.3364 46.4692C26.2456 46.3091 26.1118 46.1895 25.9351 46.1104C25.7905 46.0459 25.5996 46.0137 25.3623 46.0137H24.4731V46.0679H24.5391C24.5947 46.0679 24.6387 46.0776 24.6709 46.0972C24.7041 46.1157 24.7261 46.1377 24.7368 46.1631C24.7476 46.1885 24.7529 46.252 24.7529 46.3535V47.6602C24.7529 47.7627 24.7485 47.8242 24.7397 47.8447C24.7251 47.876 24.7022 47.9009 24.6709 47.9194C24.6406 47.937 24.5967 47.9458 24.5391 47.9458H24.4731ZM25.2305 47.6763V46.1265C25.3936 46.1255 25.5103 46.1401 25.5806 46.1704C25.6802 46.2134 25.7617 46.2944 25.8252 46.4136C25.9053 46.5659 25.9453 46.7695 25.9453 47.0244C25.9453 47.3408 25.8867 47.5742 25.7695 47.7246C25.6836 47.8359 25.5591 47.8916 25.396 47.8916C25.3462 47.8916 25.3081 47.8843 25.2817 47.8696C25.2632 47.8599 25.25 47.8457 25.2422 47.8271C25.2344 47.8086 25.2305 47.7583 25.2305 47.6763ZM28.6602 48V47.9458H28.5943C28.5386 47.9458 28.4942 47.9365 28.461 47.918C28.4288 47.8984 28.4068 47.876 28.3951 47.8506C28.3843 47.8252 28.3789 47.7617 28.3789 47.6602V46.3535C28.3789 46.2539 28.3843 46.1924 28.3951 46.1689C28.4097 46.1357 28.4297 46.1123 28.4551 46.0986C28.4903 46.0781 28.5367 46.0679 28.5943 46.0679H28.6602V46.0137H27.6216V46.0679H27.6875C27.7432 46.0679 27.7872 46.0776 27.8194 46.0972C27.8526 46.1157 27.8746 46.1377 27.8853 46.1631C27.896 46.1885 27.9014 46.252 27.9014 46.3535V47.6602C27.9014 47.7598 27.896 47.8213 27.8853 47.8447C27.8716 47.8779 27.8521 47.9014 27.8267 47.915C27.7915 47.9355 27.7452 47.9458 27.6875 47.9458H27.6216V48H28.6602ZM31.4176 47.2456L30.4376 46.0137H29.733V46.0679C29.7935 46.0698 29.8399 46.0791 29.8722 46.0957C29.9044 46.1123 29.9415 46.147 29.9835 46.1997L30.026 46.2524V47.6543C30.026 47.7598 30.0045 47.8345 29.9615 47.8784C29.9185 47.9224 29.8424 47.9448 29.733 47.9458V48H30.4376V47.9458H30.3907C30.3233 47.9458 30.2633 47.9258 30.2105 47.8857C30.1588 47.8457 30.1329 47.7686 30.1329 47.6543V46.3916L31.4762 48.0454H31.526V46.3916C31.526 46.2979 31.5338 46.2319 31.5494 46.1938C31.566 46.1548 31.5885 46.127 31.6168 46.1104C31.6461 46.0928 31.7027 46.0786 31.7867 46.0679V46.0137H31.1305V46.0679C31.2408 46.0659 31.3194 46.0933 31.3663 46.1499C31.4005 46.1919 31.4176 46.2725 31.4176 46.3916V47.2456ZM34.8883 46.6685V45.9683H34.8341C34.8146 46.0239 34.7931 46.062 34.7697 46.0825C34.7462 46.1021 34.7208 46.1118 34.6935 46.1118C34.6759 46.1118 34.6188 46.0938 34.5221 46.0576C34.4264 46.0205 34.3571 45.998 34.3141 45.9902C34.235 45.9746 34.1461 45.9668 34.0475 45.9668C33.7291 45.9668 33.465 46.0698 33.255 46.2759C33.045 46.4819 32.9401 46.7344 32.9401 47.0332C32.9401 47.2002 32.9742 47.3511 33.0426 47.4858C33.0963 47.5903 33.1705 47.6846 33.2653 47.7686C33.361 47.8516 33.4708 47.9189 33.5948 47.9707C33.7198 48.0215 33.8766 48.0469 34.0651 48.0469C34.2125 48.0469 34.3546 48.0322 34.4913 48.0029C34.629 47.9746 34.7614 47.9321 34.8883 47.8755V47.4624C34.8883 47.3901 34.8927 47.3447 34.9015 47.3262C34.9171 47.291 34.9391 47.2661 34.9674 47.2515C34.9967 47.2358 35.048 47.2256 35.1212 47.2207V47.1665H34.1559V47.2207H34.2072C34.255 47.2207 34.2955 47.23 34.3287 47.2485C34.3629 47.2671 34.3854 47.2881 34.3961 47.3115C34.4069 47.334 34.4122 47.3843 34.4122 47.4624V47.8755C34.3595 47.895 34.3077 47.9102 34.257 47.9209C34.2072 47.9307 34.1583 47.9355 34.1105 47.9355C33.9728 47.9355 33.8536 47.9019 33.7531 47.8345C33.6534 47.7671 33.5812 47.6616 33.5363 47.5181C33.4913 47.3745 33.4689 47.2075 33.4689 47.0171C33.4689 46.8599 33.4894 46.7065 33.5304 46.5571C33.5714 46.4077 33.6412 46.2915 33.7399 46.2085C33.8385 46.1245 33.962 46.0825 34.1105 46.0825C34.2657 46.0825 34.4088 46.1323 34.5397 46.2319C34.6705 46.3315 34.7687 46.4771 34.8341 46.6685H34.8883ZM37.5387 46.6304L37.5226 45.9683H37.4787C37.466 46.0278 37.4523 46.0654 37.4377 46.0811C37.423 46.0967 37.403 46.1045 37.3776 46.1045C37.3512 46.1045 37.3048 46.0889 37.2384 46.0576C37.173 46.0254 37.1173 46.0034 37.0714 45.9917C37.0109 45.9761 36.9484 45.9683 36.8839 45.9683C36.7072 45.9683 36.5607 46.0239 36.4445 46.1353C36.3283 46.2466 36.2702 46.3813 36.2702 46.5396C36.2702 46.6323 36.2912 46.7173 36.3332 46.7944C36.3761 46.8716 36.4372 46.9414 36.5163 47.0039C36.5954 47.0664 36.7253 47.1421 36.9059 47.231C37.0348 47.2944 37.1247 47.3462 37.1755 47.3862C37.2262 47.4253 37.2638 47.4668 37.2882 47.5107C37.3136 47.5547 37.3263 47.6001 37.3263 47.647C37.3263 47.7261 37.2936 47.7954 37.2282 47.855C37.1637 47.9146 37.0768 47.9443 36.9674 47.9443C36.8258 47.9443 36.6935 47.8892 36.5705 47.7788C36.4484 47.6675 36.3659 47.5063 36.3229 47.2954H36.2687V48.0454H36.3229C36.3405 48.0054 36.3634 47.9756 36.3918 47.9561C36.4201 47.9365 36.4469 47.9268 36.4723 47.9268C36.5026 47.9268 36.5412 47.9365 36.5881 47.9561C36.672 47.9912 36.7419 48.0151 36.7975 48.0278C36.8532 48.0405 36.9123 48.0469 36.9748 48.0469C37.174 48.0469 37.3381 47.9873 37.467 47.8682C37.5968 47.748 37.6618 47.605 37.6618 47.439C37.6618 47.3081 37.6217 47.1919 37.5417 47.0903C37.4606 46.9888 37.3039 46.8809 37.0714 46.7666C36.9054 46.6846 36.7995 46.6274 36.7536 46.5952C36.6911 46.5503 36.6457 46.5049 36.6173 46.459C36.5968 46.4248 36.5866 46.3857 36.5866 46.3418C36.5866 46.2725 36.6154 46.2114 36.673 46.1587C36.7316 46.105 36.8107 46.0781 36.9103 46.0781C37.0392 46.0781 37.1589 46.1289 37.2692 46.2305C37.3805 46.3311 37.4504 46.4644 37.4787 46.6304H37.5387Z" fill="white"/>
<path d="M17.3936 40.9565L18.5581 42.4141C18.7225 42.6191 18.8641 42.7583 18.9829 42.8315C19.0692 42.8836 19.1603 42.9097 19.2563 42.9097V43H17.5327V42.9097C17.6418 42.8999 17.7118 42.8828 17.7427 42.8584C17.7752 42.834 17.7915 42.8039 17.7915 42.7681C17.7915 42.6997 17.7166 42.5711 17.5669 42.3823L16.8076 41.4277L16.6855 41.5303V42.4336C16.6855 42.6061 16.6953 42.7135 16.7148 42.7559C16.7344 42.7982 16.7718 42.8348 16.8271 42.8657C16.8825 42.895 16.9712 42.9097 17.0933 42.9097V43H15.4233V42.9097H15.5332C15.6292 42.9097 15.7065 42.8926 15.7651 42.8584C15.8075 42.8356 15.84 42.7965 15.8628 42.7412C15.8807 42.7021 15.8896 42.5996 15.8896 42.4336V40.2559C15.8896 40.0866 15.8807 39.9808 15.8628 39.9385C15.8449 39.8962 15.8083 39.8595 15.7529 39.8286C15.6992 39.7961 15.626 39.7798 15.5332 39.7798H15.4233V39.6895H17.0713V39.7798C16.959 39.7798 16.8735 39.7961 16.8149 39.8286C16.7726 39.8514 16.7393 39.8896 16.7148 39.9434C16.6953 39.984 16.6855 40.0882 16.6855 40.2559V41.2861L17.9136 40.2925C18.0845 40.1541 18.1699 40.0435 18.1699 39.9604C18.1699 39.8986 18.1349 39.8498 18.0649 39.814C18.0291 39.7961 17.9404 39.7847 17.7988 39.7798V39.6895H19.0903V39.7798C18.9748 39.7879 18.8836 39.8091 18.8169 39.8433C18.7518 39.8758 18.6004 39.9881 18.3628 40.1802L17.3936 40.9565Z" fill="white"/>
<path d="M22.4837 42.9097V43H20.7527V42.9097H20.8626C20.9586 42.9097 21.0359 42.8926 21.0945 42.8584C21.1368 42.8356 21.1694 42.7965 21.1922 42.7412C21.2101 42.7021 21.219 42.5996 21.219 42.4336V40.2559C21.219 40.0866 21.2101 39.9808 21.1922 39.9385C21.1743 39.8962 21.1377 39.8595 21.0823 39.8286C21.0286 39.7961 20.9554 39.7798 20.8626 39.7798H20.7527V39.6895H22.4837V39.7798H22.3738C22.2778 39.7798 22.2005 39.7969 22.1419 39.8311C22.0996 39.8538 22.0662 39.8929 22.0418 39.9482C22.0239 39.9873 22.0149 40.0898 22.0149 40.2559V42.4336C22.0149 42.6029 22.0239 42.7087 22.0418 42.751C22.0613 42.7933 22.0979 42.8307 22.1517 42.8633C22.207 42.8942 22.2811 42.9097 22.3738 42.9097H22.4837Z" fill="white"/>
<path d="M25.296 39.6895L26.9293 41.7427V40.3193C26.9293 40.1208 26.9008 39.9865 26.8438 39.9165C26.7657 39.8221 26.6347 39.7765 26.4508 39.7798V39.6895H27.5445V39.7798C27.4046 39.7977 27.3102 39.8213 27.2613 39.8506C27.2141 39.8783 27.1767 39.9246 27.149 39.9897C27.123 40.0532 27.11 40.1631 27.11 40.3193V43.0757H27.027L24.7882 40.3193V42.4238C24.7882 42.6143 24.8313 42.7428 24.9176 42.8096C25.0055 42.8763 25.1056 42.9097 25.2179 42.9097H25.296V43H24.1217V42.9097C24.304 42.908 24.4309 42.8706 24.5025 42.7974C24.5742 42.7241 24.61 42.5996 24.61 42.4238V40.0874L24.5392 39.9995C24.4692 39.9116 24.4073 39.8538 24.3536 39.8262C24.2999 39.7985 24.2226 39.783 24.1217 39.7798V39.6895H25.296Z" fill="white"/>
<path d="M32.5639 39.6138V40.7808H32.4735C32.3645 40.4618 32.2009 40.2192 31.9828 40.0532C31.7647 39.8872 31.5263 39.8042 31.2675 39.8042C31.0201 39.8042 30.8142 39.8742 30.6498 40.0142C30.4854 40.1525 30.369 40.3462 30.3007 40.5952C30.2323 40.8442 30.1981 41.0998 30.1981 41.3618C30.1981 41.6792 30.2356 41.9575 30.3104 42.1968C30.3853 42.436 30.5058 42.6118 30.6718 42.7241C30.8394 42.8364 31.038 42.8926 31.2675 42.8926C31.3472 42.8926 31.4286 42.8844 31.5116 42.8682C31.5963 42.8503 31.6825 42.825 31.7704 42.7925V42.104C31.7704 41.9738 31.7615 41.89 31.7436 41.8525C31.7257 41.8135 31.6882 41.7785 31.6313 41.7476C31.5759 41.7166 31.5084 41.7012 31.4286 41.7012H31.3432V41.6108H32.952V41.7012C32.83 41.7093 32.7445 41.7264 32.6957 41.7524C32.6485 41.7769 32.6119 41.8184 32.5858 41.877C32.5712 41.9079 32.5639 41.9836 32.5639 42.104V42.7925C32.3523 42.8869 32.1317 42.9577 31.9022 43.0049C31.6744 43.0537 31.4376 43.0781 31.1918 43.0781C30.8777 43.0781 30.6164 43.0358 30.4081 42.9512C30.2014 42.8649 30.0183 42.7526 29.8588 42.6143C29.7009 42.4743 29.5772 42.3172 29.4877 42.1431C29.3738 41.9185 29.3168 41.667 29.3168 41.3887C29.3168 40.8906 29.4918 40.4699 29.8417 40.1265C30.1916 39.783 30.6319 39.6113 31.1625 39.6113C31.3269 39.6113 31.475 39.6243 31.6068 39.6504C31.6785 39.6634 31.794 39.7008 31.9535 39.7627C32.1146 39.8229 32.2099 39.853 32.2392 39.853C32.2847 39.853 32.327 39.8368 32.3661 39.8042C32.4052 39.77 32.441 39.7065 32.4735 39.6138H32.5639Z" fill="white"/>
<path d="M36.8044 39.6138L36.8312 40.7173H36.7312C36.684 40.4406 36.5676 40.2184 36.382 40.0508C36.1981 39.8815 35.9987 39.7969 35.7839 39.7969C35.6179 39.7969 35.486 39.8416 35.3884 39.9312C35.2923 40.019 35.2443 40.1208 35.2443 40.2363C35.2443 40.3096 35.2614 40.3747 35.2956 40.4316C35.3428 40.5081 35.4185 40.5838 35.5227 40.6587C35.5992 40.7124 35.7757 40.8076 36.0524 40.9443C36.4398 41.1348 36.701 41.3146 36.8361 41.4839C36.9696 41.6532 37.0363 41.8468 37.0363 42.0649C37.0363 42.3416 36.9281 42.5801 36.7116 42.7803C36.4968 42.9788 36.2233 43.0781 35.8913 43.0781C35.7871 43.0781 35.6887 43.0675 35.5959 43.0464C35.5031 43.0252 35.3868 42.9854 35.2468 42.9268C35.1687 42.8942 35.1044 42.8779 35.0539 42.8779C35.0116 42.8779 34.9668 42.8942 34.9196 42.9268C34.8724 42.9593 34.8342 43.009 34.8049 43.0757H34.7146V41.8257H34.8049C34.8765 42.1772 35.014 42.4458 35.2175 42.6313C35.4226 42.8153 35.6431 42.9072 35.8791 42.9072C36.0614 42.9072 36.2062 42.8576 36.3137 42.7583C36.4227 42.659 36.4772 42.5435 36.4772 42.4116C36.4772 42.3335 36.4561 42.2578 36.4138 42.1846C36.3731 42.1113 36.3104 42.0422 36.2258 41.9771C36.1411 41.9103 35.9914 41.8241 35.7766 41.7183C35.4755 41.5701 35.259 41.444 35.1271 41.3398C34.9953 41.2357 34.8936 41.1193 34.822 40.9907C34.752 40.8621 34.717 40.7205 34.717 40.5659C34.717 40.3022 34.8138 40.0776 35.0075 39.8921C35.2012 39.7065 35.4453 39.6138 35.7399 39.6138C35.8474 39.6138 35.9515 39.6268 36.0524 39.6528C36.1289 39.6724 36.2217 39.709 36.3308 39.7627C36.4414 39.8148 36.5187 39.8408 36.5627 39.8408C36.605 39.8408 36.6384 39.8278 36.6628 39.8018C36.6872 39.7757 36.71 39.7131 36.7312 39.6138H36.8044Z" fill="white"/>
</svg>
